HIERARCHY
ROOT Hips
{
  OFFSET 13.6774 106.653 -34.4427
  CHANNELS 6 Xposition Yposition Zposition Zrotation Xrotation Yrotation
  JOINT ToSpine
  {
    OFFSET -2.69724 7.43032 -0.144315
    CHANNELS 3 Zrotation Xrotation Yrotation
    JOINT Spine
    {
      OFFSET -0.0310711 10.7595 1.96963
      CHANNELS 3 Zrotation Xrotation Yrotation
      JOINT Spine1
      {
        OFFSET 19.9056 3.91189 0.764692
        CHANNELS 3 Zrotation Xrotation Yrotation
        JOINT Neck
        {
          OFFSET 25.9749 7.03908 -0.130764
          CHANNELS 3 Zrotation Xrotation Yrotation
          JOINT Head
          {
            OFFSET 9.52751 0.295786 -0.907742
            CHANNELS 3 Zrotation Xrotation Yrotation
            End Site
            {
              OFFSET 16.4037 0.713936 2.7358
            }
          }
        }
        JOINT LeftShoulder
        {
          OFFSET 17.7449 4.33886 11.7777
          CHANNELS 3 Zrotation Xrotation Yrotation
          JOINT LeftArm
          {
            OFFSET 0.911315 1.27913 9.80584
            CHANNELS 3 Zrotation Xrotation Yrotation
            JOINT LeftForeArm
            {
              OFFSET 28.6126 1.18197 -3.53199
              CHANNELS 3 Zrotation Xrotation Yrotation
              JOINT LeftHand
              {
                OFFSET 27.5088 0.0218783 0.327423
                CHANNELS 3 Zrotation Xrotation Yrotation
                End Site
                {
                  OFFSET 18.6038 -0.000155887 0.382096
                }
              }
            }
          }
        }
        JOINT RightShoulder
        {
          OFFSET 17.1009 2.89543 -12.2328
          CHANNELS 3 Zrotation Xrotation Yrotation
          JOINT RightArm
          {
            OFFSET 1.4228 0.178766 -10.211
            CHANNELS 3 Zrotation Xrotation Yrotation
            JOINT RightForeArm
            {
              OFFSET 28.733 1.87905 2.64907
              CHANNELS 3 Zrotation Xrotation Yrotation
              JOINT RightHand
              {
                OFFSET 27.4588 0.290562 -0.101845
                CHANNELS 3 Zrotation Xrotation Yrotation
                End Site
                {
                  OFFSET 17.8396 -0.255518 -0.000602873
                }
              }
            }
          }
        }
      }
    }
  }
  JOINT LeftUpLeg
  {
    OFFSET -5.61296 -2.22332 -10.2353
    CHANNELS 3 Zrotation Xrotation Yrotation
    JOINT LeftLeg
    {
      OFFSET 2.56703 -44.7417 -7.93097
      CHANNELS 3 Zrotation Xrotation Yrotation
      JOINT LeftFoot
      {
        OFFSET 3.16933 -46.5642 -3.96578
        CHANNELS 3 Zrotation Xrotation Yrotation
        JOINT LeftToeBase
        {
          OFFSET 0.346054 -6.02161 12.8035
          CHANNELS 3 Zrotation Xrotation Yrotation
          End Site
          {
            OFFSET 0.134235 -1.35082 5.13018
          }
        }
      }
    }
  }
  JOINT RightUpLeg
  {
    OFFSET -5.7928 -1.72406 10.6446
    CHANNELS 3 Zrotation Xrotation Yrotation
    JOINT RightLeg
    {
      OFFSET -2.57161 -44.7178 -7.85259
      CHANNELS 3 Zrotation Xrotation Yrotation
      JOINT RightFoot
      {
        OFFSET -3.10148 -46.5936 -4.03391
        CHANNELS 3 Zrotation Xrotation Yrotation
        JOINT RightToeBase
        {
          OFFSET -0.0828122 -6.13587 12.8035
          CHANNELS 3 Zrotation Xrotation Yrotation
          End Site
          {
            OFFSET -0.131328 -1.35082 5.13018
          }
        }
      }
    }
  }
}
MOTION
Frames: 15
Frame Time: 0.03333333333333333
0.0000 93.1000 0.0000 68.1142 -46.5671 -4.3057 -71.2873 0.3754 88.3342 73.7331 81.9832 14.3638 -5.0021 31.7589 2.2553 -132.3526 37.1374 150.8097 172.3938 80.8157 -145.7803 2.1765 3.6487 -12.3483 -112.6248 25.3908 -61.5424 16.1001 -5.1513 -104.8469 0.0162 -1.0457 2.5196 -2.4327 7.6155 38.3216 -101.8428 -16.1631 73.1408 22.4628 -6.7294 73.7393 -1.9156 0.2521 -1.7574 -27.0747 -6.1759 80.3736 -5.3904 52.6152 -5.0158 3.4440 -8.1141 0.2097 -1.6143 3.3222 -3.1021 -68.1230 17.6763 79.1588 4.4791 28.0970 4.0378 -5.1740 -25.0479 0.3141 3.0029 -2.5020 -27.6475 
0.0000 93.1000 0.0000 68.8261 -47.5555 -5.0185 -71.1785 0.1998 87.9803 54.5714 81.6385 29.7982 -4.0579 32.1688 0.7831 -131.8103 36.1437 149.3257 175.4934 79.9278 -150.0853 2.1113 4.7303 -9.7324 -111.9365 24.4187 -64.5544 16.4749 -5.6259 -105.7187 0.5801 -1.0583 1.9516 -2.5456 7.6856 37.4298 -96.1807 -23.1974 65.7337 19.9567 -7.2490 72.8151 -1.8420 0.1797 -1.6042 -30.3706 -4.4330 81.1290 -5.3058 55.9198 -7.2175 3.8345 -11.3408 -0.2423 -2.7560 2.9757 2.3132 -68.0752 15.5753 74.1592 3.6026 36.4205 10.8784 -3.7668 -19.9489 0.3621 1.5254 -17.9553 -18.3850 
0.0000 93.1000 0.0000 71.6911 -47.7792 -2.9585 -71.1294 -0.8235 87.7114 58.0672 79.8292 22.9927 -4.1897 31.3858 0.3880 -129.6961 33.6920 149.9641 175.2329 78.0702 -149.5081 1.4285 4.5097 -10.1402 -109.0707 28.3356 -72.0253 16.8905 -6.6852 -106.5141 0.4919 -0.6685 2.2784 -3.1636 7.3674 38.3151 -92.5462 -30.6869 58.1197 14.3393 -5.7300 69.9049 -1.7189 -0.3699 -2.1446 -34.3680 -2.6276 83.0571 -5.2558 55.6974 -7.8790 6.1276 -13.8424 -0.6908 -1.7642 2.1488 0.4453 -61.0662 11.1565 72.1645 2.0310 51.2209 0.3995 -4.3944 -16.9605 -0.2236 1.1554 -23.8603 -3.7958 
0.0000 93.1000 0.0000 77.8755 -43.5622 2.5255 -70.8315 -2.8997 87.7208 83.8840 76.6329 -4.2994 -6.1240 27.1710 2.4858 -123.8575 30.1723 148.9988 175.0038 75.2748 -147.6928 -1.0744 1.5127 -12.9164 -102.5989 34.1557 -85.9577 15.7481 -6.0214 -105.8722 0.0048 2.2837 2.6397 -2.6949 5.9715 41.1061 -94.9097 -32.8477 47.4278 5.5981 -2.6490 63.9820 -0.0305 -3.9132 -1.0853 -39.0472 -1.7225 81.9151 -5.6096 55.7699 -10.2336 6.7263 -12.7627 -3.1231 -1.2833 -1.2504 1.1655 -52.3840 7.1347 71.3262 2.3736 60.4162 -10.5752 -5.7588 -17.0241 0.6234 2.6511 -24.3889 0.1358 
0.0000 93.1000 0.0000 83.0556 -40.0986 8.9374 -70.6438 -0.0806 87.8191 98.9829 71.9671 -23.5560 -3.2996 22.3157 4.5527 -118.3972 23.4496 147.2136 -168.6111 71.4204 -157.1171 1.2093 -4.6696 -16.2766 -92.1711 36.0214 -103.9550 16.4657 -4.2384 -100.3641 -1.3382 -1.0460 1.8067 -3.2597 6.5298 46.1316 -95.6838 -32.2720 36.9348 -11.9481 5.9902 61.7620 -1.2011 0.0287 -2.6515 -43.2050 -0.3650 78.7974 -6.2332 55.8593 -11.4030 8.5074 -12.9899 -1.4307 -0.5624 -0.6170 1.6137 -40.8731 6.1528 78.7506 3.1881 59.1131 -7.3503 -1.9510 -18.0893 0.4667 1.9785 -20.2134 -10.9204 
0.0000 93.1000 0.0000 87.1576 -39.1299 14.1288 -70.5757 -0.9381 87.8283 109.6287 68.3813 -35.5749 -2.5045 18.9556 6.1622 -118.0162 20.3634 148.1537 -161.4701 69.0056 -160.7912 -0.2384 -11.0751 -19.0155 -89.5960 32.5248 -118.1439 16.3546 -1.0764 -90.8188 -2.4258 0.1253 2.8084 -3.2843 6.4183 46.8861 -95.6220 -30.3603 33.1902 -17.2242 8.1629 64.0034 -0.3438 -1.1811 -2.0514 -47.1657 2.1757 77.7165 -5.6176 55.9827 -10.7715 7.2960 -12.5200 -1.8484 -1.0279 1.2886 1.5698 -27.4436 2.3492 86.1947 2.1727 53.2668 -4.9107 0.2628 -18.4556 0.3580 2.5589 -21.4791 -20.7224 
0.0000 93.1000 0.0000 93.4192 -43.2128 20.0750 -70.6129 -0.9766 87.6431 116.6819 63.9109 -43.5451 0.5616 17.1849 5.8929 -121.1919 17.1639 151.3213 -155.7778 65.1981 -164.3126 -0.7006 -14.7715 -17.0441 -90.2458 28.8619 -131.7510 14.1997 2.9996 -75.7056 -2.8537 0.6945 3.5886 -3.0538 7.1721 44.5352 -91.7430 -28.7026 35.1027 -18.6549 8.1370 65.7810 0.0406 -1.7476 -1.8462 -51.7878 8.3442 79.9121 -5.5731 56.4356 -11.1912 5.7776 -12.6664 -2.3020 -1.2352 -0.6240 1.8032 -15.1662 -0.2415 86.6516 1.1149 39.6637 0.3144 3.8202 -16.9411 0.2085 2.0024 -23.0231 -18.8460 
0.0000 93.1000 0.0000 102.8392 -47.3786 28.6413 -70.5167 -0.6585 87.6886 125.9468 57.6867 -51.5340 1.9978 16.7112 5.2760 -122.0662 15.7906 156.5441 -156.2157 61.2517 -162.9802 -0.7760 -17.3951 -14.5101 -91.9873 24.1373 -141.9217 9.1245 5.0220 -56.9172 -2.3350 0.9746 4.3671 -2.7688 8.6398 40.7036 -87.7315 -26.1063 41.0473 -18.1647 7.3496 66.7522 0.3240 -1.9690 -1.5204 -59.4833 14.7915 83.8657 -6.1061 53.7821 -12.7243 4.0268 -13.5141 -2.6987 -0.8554 -0.0450 0.8476 -5.6706 -1.3773 86.8861 2.3305 21.4388 7.8999 4.6624 -14.1093 0.3031 1.3942 -25.7833 -23.5887 
0.0000 93.1000 0.0000 106.8283 -47.8575 35.4442 -70.7236 -1.0659 87.8358 130.8892 51.9894 -54.7723 3.6133 14.4956 8.1287 -121.1491 15.0547 161.1516 -155.6273 58.8707 -160.5625 -1.2222 -20.2504 -11.9307 -93.9244 23.7005 -147.9886 2.6483 2.0554 -38.8075 -2.1318 1.0124 4.9395 -3.1466 9.6815 37.0873 -84.0020 -20.5695 50.0397 -19.8697 8.7016 65.8843 -0.0841 -1.9668 -2.3076 -63.2681 21.2024 85.5616 -5.8787 51.8995 -16.0295 1.9196 -13.4909 -1.9467 -0.1410 -1.7716 1.7032 6.1070 -5.4471 89.9433 0.9385 13.0786 9.0958 2.2131 -10.4901 -0.5091 2.6204 -25.3786 -29.5709 
0.0000 93.1000 0.0000 107.3276 -44.1415 40.8996 -70.5654 -1.0684 87.8956 133.9295 47.6222 -55.0125 5.9503 11.1013 10.9633 -122.9261 14.8111 163.9456 -156.5776 58.8702 -159.2245 -1.3666 -21.8018 -10.0692 -102.8179 32.4810 -150.0579 0.0307 6.9089 -23.9379 -0.7106 0.8472 3.6398 -3.1665 10.3340 34.3870 -84.9506 -13.9573 57.9593 -20.1676 9.1274 64.9979 0.0107 -1.8649 -2.8384 -64.2129 26.2731 82.9511 -5.7878 51.0597 -17.1846 -0.5076 -11.6998 -1.8194 0.8994 -3.8925 0.3218 20.1136 -13.7476 96.3102 0.5805 12.5227 4.7755 2.1509 -3.6972 -0.6554 1.0051 -23.1598 -25.1458 
0.0000 93.1000 0.0000 106.4728 -42.3266 44.6138 -70.5256 -1.5817 87.9506 140.0013 43.8789 -53.9775 7.1637 9.3601 10.8006 -121.0827 15.0138 163.3574 -155.4296 58.8168 -158.7324 -1.7844 -23.1357 -11.7683 -105.7653 38.0264 -150.8810 -2.0213 9.5673 -16.1684 -0.0466 0.5562 1.6970 -3.6188 10.9982 32.1733 -84.5509 -9.8509 64.1953 -18.0693 8.8252 60.4606 0.0119 -1.6781 -3.8255 -64.3274 31.0298 80.7856 -6.3461 50.8388 -19.0012 -4.0448 -9.7091 -1.0376 1.8482 -5.7687 0.8203 31.7638 -22.4900 104.8072 -2.2930 13.0813 9.4915 1.2841 0.9535 -0.9531 0.6597 -23.4405 -23.1281 
0.0000 93.1000 0.0000 106.8980 -41.0093 47.9652 -70.5493 -1.7916 88.0252 144.9319 41.7113 -53.4491 6.2607 9.2144 9.5955 -119.0187 15.7272 163.0063 -156.3341 60.0542 -155.6618 -2.1292 -24.0001 -12.9597 -104.0718 37.8845 -153.1008 -1.9760 8.9580 -16.2710 -0.0406 0.7383 0.8737 -3.6277 11.0284 32.3993 -79.2863 -5.5035 66.8229 -16.8561 10.3447 56.1777 1.5725 -2.0957 -4.8830 -63.2006 35.4250 80.6875 -5.7303 51.8454 -17.1572 -6.4076 -6.6216 -0.6928 3.0674 -6.2514 -4.9974 42.6681 -26.7270 112.4847 -4.1504 12.9928 16.1253 -1.7024 3.6742 -0.5521 0.9538 -27.4785 -35.2047 
0.0000 93.1000 0.0000 108.6253 -41.3374 49.4717 -70.7673 -0.9523 88.0792 148.9698 40.9670 -55.5521 5.4742 10.0820 8.6493 -116.0669 16.1558 161.6177 -153.7908 60.9975 -156.8871 -1.5142 -24.9739 -13.8185 -101.0382 34.3403 -153.9592 -0.1368 9.6987 -18.9470 -0.6696 0.1437 0.3882 -3.3852 11.0111 33.6430 -74.8964 -2.8713 66.0639 -22.5771 14.9354 55.9705 2.7129 -1.5424 -6.0295 -64.4991 35.8525 80.7462 -4.9861 52.8750 -12.9856 -8.9266 -2.7776 0.1193 4.0399 -6.9137 -13.8415 49.9476 -30.9926 118.4564 -2.9347 12.1932 12.0237 -3.8171 1.8037 0.3198 0.3978 -24.6590 -38.0313 
0.0000 93.1000 0.0000 111.6013 -45.2110 51.1251 -70.8742 -0.3446 87.9980 150.9104 42.8857 -56.8366 4.4336 12.3725 8.7515 -113.9524 17.6431 163.0630 -157.0601 61.7531 -153.0177 -1.1798 -23.7855 -13.7548 -99.8361 31.8903 -149.9398 0.1175 7.7604 -21.8682 -0.9410 0.9253 1.3429 -2.1752 10.6119 32.9356 -76.7483 -4.2000 67.7857 -22.9658 15.8019 55.0914 3.3034 -2.3594 -4.9018 -66.0812 33.6554 79.8877 -5.1385 51.7049 -7.9832 -9.7584 0.8087 -0.5331 4.7881 -8.3177 -15.2990 49.9455 -33.4531 118.9087 -3.1954 12.4139 11.5105 -4.4169 2.0095 1.5147 1.6959 -23.5897 -35.5918 
0.0000 93.1000 0.0000 111.8738 -53.7971 52.3931 -70.8863 -0.8831 87.9503 149.9948 47.8836 -49.8807 3.1991 13.9800 7.0412 -113.9269 19.7972 170.0847 -162.9007 61.8632 -148.5301 -1.2268 -22.1051 -14.9440 -99.9124 26.8194 -139.0943 1.5894 7.3122 -28.1134 -1.0193 1.0428 2.9750 -2.6167 10.2033 31.8813 -82.7975 -8.9233 70.9586 -21.5782 14.5519 55.2372 2.2157 -2.3001 -4.2393 -65.1634 33.4071 77.5687 -4.1264 50.7644 -3.5019 -6.9804 6.6059 0.2331 5.3712 -9.8275 -16.8034 41.0524 -33.6562 114.3568 -4.1218 12.8078 15.9012 -3.3170 1.4915 0.5436 0.9636 -24.4684 -36.6788 
